<svg width="17" height="20" viewBox="0 0 17 20" fill="none" xmlns="http://www.w3.org/2000/svg">
<path d="M8.12308 12C8.28374 12 8.44079 11.9414 8.57437 11.8315C8.70795 11.7216 8.81207 11.5654 8.87355 11.3827C8.93503 11.2 8.95112 10.9989 8.91978 10.8049C8.88843 10.6109 8.81107 10.4327 8.69746 10.2929C8.58386 10.153 8.43912 10.0578 8.28155 10.0192C8.12398 9.98063 7.96065 10.0004 7.81222 10.0761C7.66379 10.1518 7.53693 10.28 7.44767 10.4444C7.35841 10.6089 7.31077 10.8022 7.31077 11C7.31077 11.2652 7.39635 11.5196 7.54869 11.7071C7.70103 11.8946 7.90764 12 8.12308 12ZM12.1846 12C12.3453 12 12.5023 11.9414 12.6359 11.8315C12.7695 11.7216 12.8736 11.5654 12.9351 11.3827C12.9966 11.2 13.0127 10.9989 12.9813 10.8049C12.95 10.6109 12.8726 10.4327 12.759 10.2929C12.6454 10.153 12.5007 10.0578 12.3431 10.0192C12.1855 9.98063 12.0222 10.0004 11.8738 10.0761C11.7253 10.1518 11.5985 10.28 11.5092 10.4444C11.4199 10.6089 11.3723 10.8022 11.3723 11C11.3723 11.2652 11.4579 11.5196 11.6102 11.7071C11.7626 11.8946 11.9692 12 12.1846 12ZM8.12308 16C8.28374 16 8.44079 15.9414 8.57437 15.8315C8.70795 15.7216 8.81207 15.5654 8.87355 15.3827C8.93503 15.2 8.95112 14.9989 8.91978 14.8049C8.88843 14.6109 8.81107 14.4327 8.69746 14.2929C8.58386 14.153 8.43912 14.0578 8.28155 14.0192C8.12398 13.9806 7.96065 14.0004 7.81222 14.0761C7.66379 14.1518 7.53693 14.28 7.44767 14.4444C7.35841 14.6089 7.31077 14.8022 7.31077 15C7.31077 15.2652 7.39635 15.5196 7.54869 15.7071C7.70103 15.8946 7.90764 16 8.12308 16ZM12.1846 16C12.3453 16 12.5023 15.9414 12.6359 15.8315C12.7695 15.7216 12.8736 15.5654 12.9351 15.3827C12.9966 15.2 13.0127 14.9989 12.9813 14.8049C12.95 14.6109 12.8726 14.4327 12.759 14.2929C12.6454 14.153 12.5007 14.0578 12.3431 14.0192C12.1855 13.9806 12.0222 14.0004 11.8738 14.0761C11.7253 14.1518 11.5985 14.28 11.5092 14.4444C11.4199 14.6089 11.3723 14.8022 11.3723 15C11.3723 15.2652 11.4579 15.5196 11.6102 15.7071C11.7626 15.8946 11.9692 16 12.1846 16ZM4.06154 12C4.2222 12 4.37925 11.9414 4.51283 11.8315C4.64642 11.7216 4.75053 11.5654 4.81201 11.3827C4.87349 11.2 4.88958 10.9989 4.85824 10.8049C4.8269 10.6109 4.74953 10.4327 4.63593 10.2929C4.52232 10.153 4.37758 10.0578 4.22001 10.0192C4.06244 9.98063 3.89911 10.0004 3.75068 10.0761C3.60225 10.1518 3.47539 10.28 3.38613 10.4444C3.29687 10.6089 3.24923 10.8022 3.24923 11C3.24923 11.2652 3.33481 11.5196 3.48715 11.7071C3.63949 11.8946 3.8461 12 4.06154 12ZM13.8092 2H12.9969V1C12.9969 0.734784 12.9113 0.48043 12.759 0.292893C12.6067 0.105357 12.4001 0 12.1846 0C11.9692 0 11.7626 0.105357 11.6102 0.292893C11.4579 0.48043 11.3723 0.734784 11.3723 1V2H4.87385V1C4.87385 0.734784 4.78826 0.48043 4.63593 0.292893C4.48359 0.105357 4.27698 0 4.06154 0C3.8461 0 3.63949 0.105357 3.48715 0.292893C3.33481 0.48043 3.24923 0.734784 3.24923 1V2H2.43692C1.79061 2 1.17077 2.31607 0.713758 2.87868C0.256747 3.44129 0 4.20435 0 5V17C0 17.7956 0.256747 18.5587 0.713758 19.1213C1.17077 19.6839 1.79061 20 2.43692 20H13.8092C14.4555 20 15.0754 19.6839 15.5324 19.1213C15.9894 18.5587 16.2462 17.7956 16.2462 17V5C16.2462 4.20435 15.9894 3.44129 15.5324 2.87868C15.0754 2.31607 14.4555 2 13.8092 2ZM14.6215 17C14.6215 17.2652 14.536 17.5196 14.3836 17.7071C14.2313 17.8946 14.0247 18 13.8092 18H2.43692C2.22149 18 2.01487 17.8946 1.86253 17.7071C1.7102 17.5196 1.62462 17.2652 1.62462 17V8H14.6215V17ZM14.6215 6H1.62462V5C1.62462 4.73478 1.7102 4.48043 1.86253 4.29289C2.01487 4.10536 2.22149 4 2.43692 4H13.8092C14.0247 4 14.2313 4.10536 14.3836 4.29289C14.536 4.48043 14.6215 4.73478 14.6215 5V6ZM4.06154 16C4.2222 16 4.37925 15.9414 4.51283 15.8315C4.64642 15.7216 4.75053 15.5654 4.81201 15.3827C4.87349 15.2 4.88958 14.9989 4.85824 14.8049C4.8269 14.6109 4.74953 14.4327 4.63593 14.2929C4.52232 14.153 4.37758 14.0578 4.22001 14.0192C4.06244 13.9806 3.89911 14.0004 3.75068 14.0761C3.60225 14.1518 3.47539 14.28 3.38613 14.4444C3.29687 14.6089 3.24923 14.8022 3.24923 15C3.24923 15.2652 3.33481 15.5196 3.48715 15.7071C3.63949 15.8946 3.8461 16 4.06154 16Z" fill="#99AB25"/>
</svg>
